<svg xmlns="http://www.w3.org/2000/svg" xmlns:xlink="http://www.w3.org/1999/xlink" width="83.1" height="140.6" viewBox="0 0 83.1 140.6"><style>.st0{opacity:.9;enable-background:new}.st1{clip-path:url(#SVGID_2_)}.st2{clip-path:url(#SVGID_4_)}.st3{clip-path:url(#SVGID_6_);fill:#f6dd03}.st4{clip-path:url(#SVGID_8_)}.st5{clip-path:url(#SVGID_10_);enable-background:new}.st6{clip-path:url(#SVGID_12_)}.st7{clip-path:url(#SVGID_14_)}.st8{clip-path:url(#SVGID_16_);fill:#f9bc1e}.st9{clip-path:url(#SVGID_18_)}.st10{clip-path:url(#SVGID_20_);fill:#e9af20}.st11{clip-path:url(#SVGID_22_)}.st12{clip-path:url(#SVGID_24_)}.st13{clip-path:url(#SVGID_26_);fill:#f6dd03}.st14{clip-path:url(#SVGID_28_)}.st15{clip-path:url(#SVGID_30_);fill:#f9bc1e}.st16{clip-path:url(#SVGID_32_)}.st17{clip-path:url(#SVGID_34_);fill:#e9af20}</style><g class="st0"><defs><path id="SVGID_1_" d="M5 50.6h74v85H5z"/></defs><clipPath id="SVGID_2_"><use overflow="visible" xlink:href="#SVGID_1_"/></clipPath><g class="st1"><defs><path id="SVGID_3_" d="M41.5 93.4l.3-.2L78 72.5 41.5 51.2 5 72.2l36.5 21.2z"/></defs><clipPath id="SVGID_4_"><use overflow="visible" xlink:href="#SVGID_3_"/></clipPath><g class="st2"><defs><path id="SVGID_5_" d="M5 50.6h74v85H5z"/></defs><clipPath id="SVGID_6_"><use overflow="visible" xlink:href="#SVGID_5_"/></clipPath><path d="M0 46.2h83v52.2H0z" class="st3"/></g></g><g class="st1"><defs><path id="SVGID_7_" d="M5 72.2h36.5v63.4H5z"/></defs><clipPath id="SVGID_8_"><use overflow="visible" xlink:href="#SVGID_7_"/></clipPath><g class="st4"><defs><path id="SVGID_9_" d="M5 50.6h74v85H5z"/></defs><clipPath id="SVGID_10_"><use overflow="visible" xlink:href="#SVGID_9_"/></clipPath><g class="st5"><defs><path id="SVGID_11_" d="M5 71.6h37v64H5z"/></defs><clipPath id="SVGID_12_"><use overflow="visible" xlink:href="#SVGID_11_"/></clipPath><g class="st6"><defs><path id="SVGID_13_" d="M41.5 135.6V93.4L5 72.2v42.2z"/></defs><clipPath id="SVGID_14_"><use overflow="visible" xlink:href="#SVGID_13_"/></clipPath><g class="st7"><defs><path id="SVGID_15_" d="M5 71.6h37v64H5z"/></defs><clipPath id="SVGID_16_"><use overflow="visible" xlink:href="#SVGID_15_"/></clipPath><path d="M0 67.2h46.5v73.4H0z" class="st8"/></g></g></g></g></g><g class="st1"><defs><path id="SVGID_17_" d="M78 72.5L41.8 93.2l-.3.2v42.2L78 114.7l.1-42.2H78z"/></defs><clipPath id="SVGID_18_"><use overflow="visible" xlink:href="#SVGID_17_"/></clipPath><g class="st9"><defs><path id="SVGID_19_" d="M5 50.6h74v85H5z"/></defs><clipPath id="SVGID_20_"><use overflow="visible" xlink:href="#SVGID_19_"/></clipPath><path d="M36.5 67.5H83v73.1H36.5z" class="st10"/></g></g></g><g class="st0"><defs><path id="SVGID_21_" d="M5 4.6h74v85H5z"/></defs><clipPath id="SVGID_22_"><use overflow="visible" xlink:href="#SVGID_21_"/></clipPath><g class="st11"><defs><path id="SVGID_23_" d="M41.5 47.2l.3-.2L78 26.2 41.5 5 5 26l36.5 21.2z"/></defs><clipPath id="SVGID_24_"><use overflow="visible" xlink:href="#SVGID_23_"/></clipPath><g class="st12"><defs><path id="SVGID_25_" d="M5 4.6h74v85H5z"/></defs><clipPath id="SVGID_26_"><use overflow="visible" xlink:href="#SVGID_25_"/></clipPath><path d="M0 0h83v52.2H0z" class="st13"/></g></g><g class="st11"><defs><path id="SVGID_27_" d="M41.5 89.4V47.2L5 26v42.1z"/></defs><clipPath id="SVGID_28_"><use overflow="visible" xlink:href="#SVGID_27_"/></clipPath><g class="st14"><defs><path id="SVGID_29_" d="M5 4.6h74v85H5z"/></defs><clipPath id="SVGID_30_"><use overflow="visible" xlink:href="#SVGID_29_"/></clipPath><path d="M0 21h46.5v73.4H0z" class="st15"/></g></g><g class="st11"><defs><path id="SVGID_31_" d="M78 26.2L41.8 47l-.3.2v42.2l36.5-21V26.2z"/></defs><clipPath id="SVGID_32_"><use overflow="visible" xlink:href="#SVGID_31_"/></clipPath><g class="st16"><defs><path id="SVGID_33_" d="M5 4.6h74v85H5z"/></defs><clipPath id="SVGID_34_"><use overflow="visible" xlink:href="#SVGID_33_"/></clipPath><path d="M36.5 21.2H83v73.1H36.5z" class="st17"/></g></g></g></svg>