<svg xmlns="http://www.w3.org/2000/svg" xmlns:xlink="http://www.w3.org/1999/xlink" width="156.1" height="115.6" viewBox="0 0 156.1 115.6"><style>.st0{opacity:.9;enable-background:new}.st1{clip-path:url(#SVGID_2_)}.st2{clip-path:url(#SVGID_4_)}.st3{clip-path:url(#SVGID_6_);fill:#cc2b64}.st4{clip-path:url(#SVGID_8_)}.st5{clip-path:url(#SVGID_10_);fill:#a31d4c}.st6{clip-path:url(#SVGID_12_)}.st7{clip-path:url(#SVGID_14_);fill:#b62554}.st8{clip-path:url(#SVGID_16_)}.st9{clip-path:url(#SVGID_18_)}.st10{clip-path:url(#SVGID_20_);fill:#cc2b64}.st11{clip-path:url(#SVGID_22_)}.st12{clip-path:url(#SVGID_24_);fill:#a31d4c}.st13{clip-path:url(#SVGID_26_)}.st14{clip-path:url(#SVGID_28_);fill:#b62554}.st15{clip-path:url(#SVGID_30_)}.st16{clip-path:url(#SVGID_32_)}.st17{clip-path:url(#SVGID_34_);fill:#cc2b64}.st18{clip-path:url(#SVGID_36_)}.st19{clip-path:url(#SVGID_38_);fill:#a31d4c}.st20{clip-path:url(#SVGID_40_)}.st21{clip-path:url(#SVGID_42_);fill:#b62554}</style><g class="st0"><defs><path id="SVGID_1_" d="M41 4.4h74v85H41z"/></defs><clipPath id="SVGID_2_"><use overflow="visible" xlink:href="#SVGID_1_"/></clipPath><g class="st1"><defs><path id="SVGID_3_" d="M78 47.2l.3-.2 36.2-20.8L78 5 41.5 26 78 47.2z"/></defs><clipPath id="SVGID_4_"><use overflow="visible" xlink:href="#SVGID_3_"/></clipPath><g class="st2"><defs><path id="SVGID_5_" d="M41 4.4h74v85H41z"/></defs><clipPath id="SVGID_6_"><use overflow="visible" xlink:href="#SVGID_5_"/></clipPath><path d="M36.5 0h83v52.2h-83z" class="st3"/></g></g><g class="st1"><defs><path id="SVGID_7_" d="M78 89.4V47.2L41.5 26v42.1z"/></defs><clipPath id="SVGID_8_"><use overflow="visible" xlink:href="#SVGID_7_"/></clipPath><g class="st4"><defs><path id="SVGID_9_" d="M41 4.4h74v85H41z"/></defs><clipPath id="SVGID_10_"><use overflow="visible" xlink:href="#SVGID_9_"/></clipPath><path d="M36.5 21H83v73.4H36.5z" class="st5"/></g></g><g class="st1"><defs><path id="SVGID_11_" d="M114.5 26.2L78.3 47l-.3.2v42.2l36.5-21V26.2z"/></defs><clipPath id="SVGID_12_"><use overflow="visible" xlink:href="#SVGID_11_"/></clipPath><g class="st6"><defs><path id="SVGID_13_" d="M41 4.4h74v85H41z"/></defs><clipPath id="SVGID_14_"><use overflow="visible" xlink:href="#SVGID_13_"/></clipPath><path d="M73 21.2h46.5v73.1H73z" class="st7"/></g></g></g><g class="st0"><defs><path id="SVGID_15_" d="M78 25.4h74v86H78z"/></defs><clipPath id="SVGID_16_"><use overflow="visible" xlink:href="#SVGID_15_"/></clipPath><g class="st8"><defs><path id="SVGID_17_" d="M114.5 68.4l.4-.2 36.2-20.8-36.6-21.2-36.5 21 36.5 21.2z"/></defs><clipPath id="SVGID_18_"><use overflow="visible" xlink:href="#SVGID_17_"/></clipPath><g class="st9"><defs><path id="SVGID_19_" d="M78 25.4h74v86H78z"/></defs><clipPath id="SVGID_20_"><use overflow="visible" xlink:href="#SVGID_19_"/></clipPath><path d="M73 21.2h83v52.2H73z" class="st10"/></g></g><g class="st8"><defs><path id="SVGID_21_" d="M114.5 110.6V68.4L78 47.2v42.2z"/></defs><clipPath id="SVGID_22_"><use overflow="visible" xlink:href="#SVGID_21_"/></clipPath><g class="st11"><defs><path id="SVGID_23_" d="M78 25.4h74v86H78z"/></defs><clipPath id="SVGID_24_"><use overflow="visible" xlink:href="#SVGID_23_"/></clipPath><path d="M73 42.2h46.5v73.4H73z" class="st12"/></g></g><g class="st8"><defs><path id="SVGID_25_" d="M151.1 47.4l-36.2 20.8-.4.2v42.2h.1l36.5-21V47.4z"/></defs><clipPath id="SVGID_26_"><use overflow="visible" xlink:href="#SVGID_25_"/></clipPath><g class="st13"><defs><path id="SVGID_27_" d="M78 25.4h74v86H78z"/></defs><clipPath id="SVGID_28_"><use overflow="visible" xlink:href="#SVGID_27_"/></clipPath><path d="M109.5 42.4H156v73.1h-46.5z" class="st14"/></g></g></g><g class="st0"><defs><path id="SVGID_29_" d="M5 25.4h74v85H5z"/></defs><clipPath id="SVGID_30_"><use overflow="visible" xlink:href="#SVGID_29_"/></clipPath><g class="st15"><defs><path id="SVGID_31_" d="M41.5 68.1l.3-.1L78 47.2 41.5 26 5 46.9l36.5 21.2z"/></defs><clipPath id="SVGID_32_"><use overflow="visible" xlink:href="#SVGID_31_"/></clipPath><g class="st16"><defs><path id="SVGID_33_" d="M5 25.4h74v85H5z"/></defs><clipPath id="SVGID_34_"><use overflow="visible" xlink:href="#SVGID_33_"/></clipPath><path d="M0 21h83v52.2H0z" class="st17"/></g></g><g class="st15"><defs><path id="SVGID_35_" d="M41.5 110.3V68.1L5 46.9v42.2z"/></defs><clipPath id="SVGID_36_"><use overflow="visible" xlink:href="#SVGID_35_"/></clipPath><g class="st18"><defs><path id="SVGID_37_" d="M5 25.4h74v85H5z"/></defs><clipPath id="SVGID_38_"><use overflow="visible" xlink:href="#SVGID_37_"/></clipPath><path d="M0 41.9h46.5v73.4H0z" class="st19"/></g></g><g class="st15"><defs><path id="SVGID_39_" d="M78 47.2L41.8 68l-.3.1v42.2L78 89.4V47.2z"/></defs><clipPath id="SVGID_40_"><use overflow="visible" xlink:href="#SVGID_39_"/></clipPath><g class="st20"><defs><path id="SVGID_41_" d="M5 25.4h74v85H5z"/></defs><clipPath id="SVGID_42_"><use overflow="visible" xlink:href="#SVGID_41_"/></clipPath><path d="M36.5 42.2H83v73.1H36.5z" class="st21"/></g></g></g></svg>