<svg xmlns="http://www.w3.org/2000/svg" xmlns:xlink="http://www.w3.org/1999/xlink" width="83.1" height="94.4" viewBox="0 0 83.1 94.4"><style>.st0{opacity:.9;enable-background:new}.st1{clip-path:url(#SVGID_2_)}.st2{clip-path:url(#SVGID_4_)}.st3{clip-path:url(#SVGID_6_);fill:#f6af1a}.st4{clip-path:url(#SVGID_8_)}.st5{clip-path:url(#SVGID_10_);fill:#f29020}.st6{clip-path:url(#SVGID_12_)}.st7{clip-path:url(#SVGID_14_);fill:#f8a120}</style><g class="st0"><defs><path id="SVGID_1_" d="M4.5 4.2h74v86h-74z"/></defs><clipPath id="SVGID_2_"><use overflow="visible" xlink:href="#SVGID_1_"/></clipPath><g class="st1"><defs><path id="SVGID_3_" d="M41.5 47.2l.3-.2L78 26.2 41.5 5 5 25.9l36.5 21.3z"/></defs><clipPath id="SVGID_4_"><use overflow="visible" xlink:href="#SVGID_3_"/></clipPath><g class="st2"><defs><path id="SVGID_5_" d="M4.5 4.2h74v86h-74z"/></defs><clipPath id="SVGID_6_"><use overflow="visible" xlink:href="#SVGID_5_"/></clipPath><path d="M0 0h83v52.2H0z" class="st3"/></g></g><g class="st1"><defs><path id="SVGID_7_" d="M41.5 89.4V47.2L5 26v42.1z"/></defs><clipPath id="SVGID_8_"><use overflow="visible" xlink:href="#SVGID_7_"/></clipPath><g class="st4"><defs><path id="SVGID_9_" d="M4.5 4.2h74v86h-74z"/></defs><clipPath id="SVGID_10_"><use overflow="visible" xlink:href="#SVGID_9_"/></clipPath><path d="M0 21h46.5v73.4H0z" class="st5"/></g></g><g class="st1"><defs><path id="SVGID_11_" d="M78 26.2L41.8 47l-.3.2v42.2l36.5-21 .1-42.2H78z"/></defs><clipPath id="SVGID_12_"><use overflow="visible" xlink:href="#SVGID_11_"/></clipPath><g class="st6"><defs><path id="SVGID_13_" d="M4.5 4.2h74v86h-74z"/></defs><clipPath id="SVGID_14_"><use overflow="visible" xlink:href="#SVGID_13_"/></clipPath><path d="M36.5 21.2H83v73.1H36.5z" class="st7"/></g></g></g></svg>