<svg xmlns="http://www.w3.org/2000/svg" xmlns:xlink="http://www.w3.org/1999/xlink" width="119.6" height="115.6" viewBox="0 0 119.6 115.6"><style>.st0{opacity:.9;enable-background:new}.st1{clip-path:url(#SVGID_2_)}.st2{clip-path:url(#SVGID_4_)}.st3{clip-path:url(#SVGID_6_);fill:#f6af1a}.st4{clip-path:url(#SVGID_8_)}.st5{clip-path:url(#SVGID_10_);fill:#f29020}.st6{clip-path:url(#SVGID_12_)}.st7{clip-path:url(#SVGID_14_);fill:#f8a120}.st8{clip-path:url(#SVGID_16_)}.st9{clip-path:url(#SVGID_18_)}.st10{clip-path:url(#SVGID_20_);fill:#f6af1a}.st11{clip-path:url(#SVGID_22_)}.st12{clip-path:url(#SVGID_24_);fill:#f29020}.st13{clip-path:url(#SVGID_26_)}.st14{clip-path:url(#SVGID_28_);fill:#f8a120}</style><g class="st0"><defs><path id="SVGID_1_" d="M4.5 4.4h74v85h-74z"/></defs><clipPath id="SVGID_2_"><use overflow="visible" xlink:href="#SVGID_1_"/></clipPath><g class="st1"><defs><path id="SVGID_3_" d="M41.5 47.2l.3-.2L78 26.2 41.5 5 5 26l36.5 21.2z"/></defs><clipPath id="SVGID_4_"><use overflow="visible" xlink:href="#SVGID_3_"/></clipPath><g class="st2"><defs><path id="SVGID_5_" d="M4.5 4.4h74v85h-74z"/></defs><clipPath id="SVGID_6_"><use overflow="visible" xlink:href="#SVGID_5_"/></clipPath><path d="M0 0h83v52.2H0z" class="st3"/></g></g><g class="st1"><defs><path id="SVGID_7_" d="M41.5 89.4V47.2L5 26v42.1z"/></defs><clipPath id="SVGID_8_"><use overflow="visible" xlink:href="#SVGID_7_"/></clipPath><g class="st4"><defs><path id="SVGID_9_" d="M4.5 4.4h74v85h-74z"/></defs><clipPath id="SVGID_10_"><use overflow="visible" xlink:href="#SVGID_9_"/></clipPath><path d="M0 21h46.5v73.4H0z" class="st5"/></g></g><g class="st1"><defs><path id="SVGID_11_" d="M78 26.2L41.8 47l-.3.2v42.2l36.5-21V26.2z"/></defs><clipPath id="SVGID_12_"><use overflow="visible" xlink:href="#SVGID_11_"/></clipPath><g class="st6"><defs><path id="SVGID_13_" d="M4.5 4.4h74v85h-74z"/></defs><clipPath id="SVGID_14_"><use overflow="visible" xlink:href="#SVGID_13_"/></clipPath><path d="M36.5 21.2H83v73.1H36.5z" class="st7"/></g></g></g><g class="st0"><defs><path id="SVGID_15_" d="M41.5 25.4h74v86h-74z"/></defs><clipPath id="SVGID_16_"><use overflow="visible" xlink:href="#SVGID_15_"/></clipPath><g class="st8"><defs><path id="SVGID_17_" d="M78 68.4l.3-.2 36.2-20.8L78 26.2l-36.5 21L78 68.4z"/></defs><clipPath id="SVGID_18_"><use overflow="visible" xlink:href="#SVGID_17_"/></clipPath><g class="st9"><defs><path id="SVGID_19_" d="M41.5 25.4h74v86h-74z"/></defs><clipPath id="SVGID_20_"><use overflow="visible" xlink:href="#SVGID_19_"/></clipPath><path d="M36.5 21.2h83v52.2h-83z" class="st10"/></g></g><g class="st8"><defs><path id="SVGID_21_" d="M78 110.6V68.4L41.5 47.2v42.2z"/></defs><clipPath id="SVGID_22_"><use overflow="visible" xlink:href="#SVGID_21_"/></clipPath><g class="st11"><defs><path id="SVGID_23_" d="M41.5 25.4h74v86h-74z"/></defs><clipPath id="SVGID_24_"><use overflow="visible" xlink:href="#SVGID_23_"/></clipPath><path d="M36.5 42.2H83v73.4H36.5z" class="st12"/></g></g><g class="st8"><defs><path id="SVGID_25_" d="M114.5 47.4L78.3 68.2l-.3.2v42.2l36.6-21V47.4h-.1z"/></defs><clipPath id="SVGID_26_"><use overflow="visible" xlink:href="#SVGID_25_"/></clipPath><g class="st13"><defs><path id="SVGID_27_" d="M41.5 25.4h74v86h-74z"/></defs><clipPath id="SVGID_28_"><use overflow="visible" xlink:href="#SVGID_27_"/></clipPath><path d="M73 42.4h46.5v73.1H73z" class="st14"/></g></g></g></svg>