<svg xmlns="http://www.w3.org/2000/svg" xmlns:xlink="http://www.w3.org/1999/xlink" width="83.2" height="94.4" viewBox="0 0 83.2 94.4"><style>.st0{opacity:.9;enable-background:new}.st1{clip-path:url(#SVGID_2_)}.st2{clip-path:url(#SVGID_4_)}.st3{clip-path:url(#SVGID_6_);fill:#843594}.st4{clip-path:url(#SVGID_8_)}.st5{clip-path:url(#SVGID_10_);fill:#652977}.st6{clip-path:url(#SVGID_12_)}.st7{clip-path:url(#SVGID_14_);fill:#4d1f5b}</style><g class="st0"><defs><path id="SVGID_1_" d="M4.1 4.9h75v85h-75z"/></defs><clipPath id="SVGID_2_"><use overflow="visible" xlink:href="#SVGID_1_"/></clipPath><g class="st1"><defs><path id="SVGID_3_" d="M41.6 47.2l.3-.2L78 26 41.4 5 5 26.1l36.6 21.1z"/></defs><clipPath id="SVGID_4_"><use overflow="visible" xlink:href="#SVGID_3_"/></clipPath><g class="st2"><defs><path id="SVGID_5_" d="M4.1 4.9h75v85h-75z"/></defs><clipPath id="SVGID_6_"><use overflow="visible" xlink:href="#SVGID_5_"/></clipPath><path d="M0 0h83v52.2H0z" class="st3"/></g></g><g class="st1"><defs><path id="SVGID_7_" d="M41.8 89.4l-.2-42.2L5 26.1l.2 42.2z"/></defs><clipPath id="SVGID_8_"><use overflow="visible" xlink:href="#SVGID_7_"/></clipPath><g class="st4"><defs><path id="SVGID_9_" d="M4.1 4.9h75v85h-75z"/></defs><clipPath id="SVGID_10_"><use overflow="visible" xlink:href="#SVGID_9_"/></clipPath><path d="M0 21.1h46.8v73.2H0z" class="st5"/></g></g><g class="st1"><defs><path id="SVGID_11_" d="M78 26L41.9 47l-.3.2.2 42.2 36.4-21.2L78 26z"/></defs><clipPath id="SVGID_12_"><use overflow="visible" xlink:href="#SVGID_11_"/></clipPath><g class="st6"><defs><path id="SVGID_13_" d="M4.1 4.9h75v85h-75z"/></defs><clipPath id="SVGID_14_"><use overflow="visible" xlink:href="#SVGID_13_"/></clipPath><path d="M36.6 21h46.6v73.3H36.6z" class="st7"/></g></g></g></svg>