<svg xmlns="http://www.w3.org/2000/svg" xmlns:xlink="http://www.w3.org/1999/xlink" width="83.1" height="186.9" viewBox="0 0 83.1 186.9"><style>.st0{opacity:.9;enable-background:new}.st1{clip-path:url(#SVGID_2_)}.st2{clip-path:url(#SVGID_4_)}.st3{clip-path:url(#SVGID_6_);fill:#bec831}.st4{clip-path:url(#SVGID_8_)}.st5{clip-path:url(#SVGID_10_);fill:#a1a938}.st6{clip-path:url(#SVGID_12_)}.st7{clip-path:url(#SVGID_14_);fill:#999b36}.st8{clip-path:url(#SVGID_16_)}.st9{clip-path:url(#SVGID_18_)}.st10{clip-path:url(#SVGID_20_);fill:#bec831}.st11{clip-path:url(#SVGID_22_)}.st12{clip-path:url(#SVGID_24_);fill:#a1a938}.st13{clip-path:url(#SVGID_26_)}.st14{clip-path:url(#SVGID_28_);fill:#999b36}.st15{clip-path:url(#SVGID_30_)}.st16{clip-path:url(#SVGID_32_)}.st17{clip-path:url(#SVGID_34_);enable-background:new}.st18{clip-path:url(#SVGID_36_)}.st19{clip-path:url(#SVGID_38_)}.st20{clip-path:url(#SVGID_40_);fill:#bec831}.st21{clip-path:url(#SVGID_42_)}.st22{clip-path:url(#SVGID_44_);fill:#a1a938}.st23{clip-path:url(#SVGID_46_)}.st24{clip-path:url(#SVGID_48_);fill:#999b36}</style><g class="st0"><defs><path id="SVGID_1_" d="M5 97.2h74v85H5z"/></defs><clipPath id="SVGID_2_"><use overflow="visible" xlink:href="#SVGID_1_"/></clipPath><g class="st1"><defs><path id="SVGID_3_" d="M41.5 139.7l.3-.1L78 118.8 41.5 97.5 5 118.5l36.5 21.2z"/></defs><clipPath id="SVGID_4_"><use overflow="visible" xlink:href="#SVGID_3_"/></clipPath><g class="st2"><defs><path id="SVGID_5_" d="M5 97.2h74v85H5z"/></defs><clipPath id="SVGID_6_"><use overflow="visible" xlink:href="#SVGID_5_"/></clipPath><path d="M0 92.5h83v52.2H0z" class="st3"/></g></g><g class="st1"><defs><path id="SVGID_7_" d="M41.5 181.9v-42.2L5 118.5v42.2z"/></defs><clipPath id="SVGID_8_"><use overflow="visible" xlink:href="#SVGID_7_"/></clipPath><g class="st4"><defs><path id="SVGID_9_" d="M5 97.2h74v85H5z"/></defs><clipPath id="SVGID_10_"><use overflow="visible" xlink:href="#SVGID_9_"/></clipPath><path d="M0 113.5h46.5v73.4H0z" class="st5"/></g></g><g class="st1"><defs><path id="SVGID_11_" d="M78 118.8l-36.2 20.8-.3.1v42.2l36.5-21v-42.1z"/></defs><clipPath id="SVGID_12_"><use overflow="visible" xlink:href="#SVGID_11_"/></clipPath><g class="st6"><defs><path id="SVGID_13_" d="M5 97.2h74v85H5z"/></defs><clipPath id="SVGID_14_"><use overflow="visible" xlink:href="#SVGID_13_"/></clipPath><path d="M36.5 113.8H83v73.1H36.5z" class="st7"/></g></g></g><g class="st0"><defs><path id="SVGID_15_" d="M5 51.2h74v85H5z"/></defs><clipPath id="SVGID_16_"><use overflow="visible" xlink:href="#SVGID_15_"/></clipPath><g class="st8"><defs><path id="SVGID_17_" d="M41.5 93.5l.3-.2L78 72.5 41.6 51.3h-.1L5 72.2l36.5 21.3z"/></defs><clipPath id="SVGID_18_"><use overflow="visible" xlink:href="#SVGID_17_"/></clipPath><g class="st9"><defs><path id="SVGID_19_" d="M5 51.2h74v85H5z"/></defs><clipPath id="SVGID_20_"><use overflow="visible" xlink:href="#SVGID_19_"/></clipPath><path d="M0 46.3h83v52.2H0z" class="st10"/></g></g><g class="st8"><defs><path id="SVGID_21_" d="M41.5 135.6V93.5L5 72.2v42.2z"/></defs><clipPath id="SVGID_22_"><use overflow="visible" xlink:href="#SVGID_21_"/></clipPath><g class="st11"><defs><path id="SVGID_23_" d="M5 51.2h74v85H5z"/></defs><clipPath id="SVGID_24_"><use overflow="visible" xlink:href="#SVGID_23_"/></clipPath><path d="M0 67.2h46.5v73.4H0z" class="st12"/></g></g><g class="st8"><defs><path id="SVGID_25_" d="M78.1 72.5L41.8 93.3l-.3.2v42.1L78 114.7l.1-42.2z"/></defs><clipPath id="SVGID_26_"><use overflow="visible" xlink:href="#SVGID_25_"/></clipPath><g class="st13"><defs><path id="SVGID_27_" d="M5 51.2h74v85H5z"/></defs><clipPath id="SVGID_28_"><use overflow="visible" xlink:href="#SVGID_27_"/></clipPath><path d="M36.5 67.5H83v73.1H36.5z" class="st14"/></g></g></g><g class="st0"><defs><path id="SVGID_29_" d="M5 4.2h74v86H5z"/></defs><clipPath id="SVGID_30_"><use overflow="visible" xlink:href="#SVGID_29_"/></clipPath><g class="st15"><defs><path id="SVGID_31_" d="M5 5h73v42.2H5z"/></defs><clipPath id="SVGID_32_"><use overflow="visible" xlink:href="#SVGID_31_"/></clipPath><g class="st16"><defs><path id="SVGID_33_" d="M5 4.2h74v86H5z"/></defs><clipPath id="SVGID_34_"><use overflow="visible" xlink:href="#SVGID_33_"/></clipPath><g class="st17"><defs><path id="SVGID_35_" d="M5 4.2h74v43H5z"/></defs><clipPath id="SVGID_36_"><use overflow="visible" xlink:href="#SVGID_35_"/></clipPath><g class="st18"><defs><path id="SVGID_37_" d="M41.5 47.2l.3-.2L78 26.2 41.5 5 5 26l36.5 21.2z"/></defs><clipPath id="SVGID_38_"><use overflow="visible" xlink:href="#SVGID_37_"/></clipPath><g class="st19"><defs><path id="SVGID_39_" d="M5 4.2h74v43H5z"/></defs><clipPath id="SVGID_40_"><use overflow="visible" xlink:href="#SVGID_39_"/></clipPath><path d="M0 0h83v52.2H0z" class="st20"/></g></g></g></g></g><g class="st15"><defs><path id="SVGID_41_" d="M41.5 89.4V47.2L5 26v42.1z"/></defs><clipPath id="SVGID_42_"><use overflow="visible" xlink:href="#SVGID_41_"/></clipPath><g class="st21"><defs><path id="SVGID_43_" d="M5 4.2h74v86H5z"/></defs><clipPath id="SVGID_44_"><use overflow="visible" xlink:href="#SVGID_43_"/></clipPath><path d="M0 21h46.5v73.4H0z" class="st22"/></g></g><g class="st15"><defs><path id="SVGID_45_" d="M78 26.2L41.8 47l-.3.2v42.2l36.5-21V26.2z"/></defs><clipPath id="SVGID_46_"><use overflow="visible" xlink:href="#SVGID_45_"/></clipPath><g class="st23"><defs><path id="SVGID_47_" d="M5 4.2h74v86H5z"/></defs><clipPath id="SVGID_48_"><use overflow="visible" xlink:href="#SVGID_47_"/></clipPath><path d="M36.5 21.2H83v73.1H36.5z" class="st24"/></g></g></g></svg>